<svg xmlns="http://www.w3.org/2000/svg" viewBox="0 0 100 100">
  <defs>
    <linearGradient id="gold" x1="0%" y1="0%" x2="100%" y2="100%">
      <stop offset="0%" stop-color="#ffdd88"/>
      <stop offset="50%" stop-color="#C9A84C"/>
      <stop offset="100%" stop-color="#5a4520"/>
    </linearGradient>
    <radialGradient id="glow" cx="50%" cy="50%">
      <stop offset="0%" stop-color="#C9A84C" stop-opacity="0.2"/>
      <stop offset="100%" stop-color="#C9A84C" stop-opacity="0"/>
    </radialGradient>
  </defs>
  <rect width="100" height="100" fill="#0a0b0d"/>
  <circle cx="50" cy="50" r="40" fill="url(#glow)"/>
  <circle cx="50" cy="50" r="44" fill="none" stroke="url(#gold)" stroke-width="1.5"/>
  <circle cx="50" cy="50" r="40" fill="none" stroke="url(#gold)" stroke-width="0.5" stroke-dasharray="2 2"/>
  <circle cx="50" cy="6" r="2" fill="#ffdd88"/>
  <circle cx="94" cy="50" r="2" fill="#ffdd88"/>
  <circle cx="50" cy="94" r="2" fill="#ffdd88"/>
  <circle cx="6" cy="50" r="2" fill="#ffdd88"/>
  <path d="M 72 32 Q 65 24, 52 24 Q 32 24, 28 50 Q 32 76, 52 76 Q 65 76, 72 68 L 67 60 Q 60 66, 52 66 Q 38 66, 35 50 Q 38 34, 52 34 Q 60 34, 67 40 Z" fill="url(#gold)" stroke="#5a4520" stroke-width="0.8"/>
  <circle cx="50" cy="50" r="1" fill="#ffdd88"/>
</svg>
